<svg xmlns:svg="http://www.w3.org/2000/svg" xmlns="http://www.w3.org/2000/svg" ><g><path style="fill:#9DC3E6;" d="m 20.871987,11.12472 c 2.900462,0.715602 4.800765,3.310655 6.824541,5.375559 2.30291,2.670008 4.693942,6.031073 4.153964,9.824199 -0.638751,2.792296 -3.052818,4.703308 -5.397571,5.941183 -3.001815,1.332719 -6.569478,0.279863 -8.831398,-2.0523 -2.607442,-2.288725 -4.883086,-5.021987 -6.501888,-8.153599 0.521966,-1.689901 2.875703,0.176829 4.050333,-0.905557 2.002201,-0.07915 2.744307,2.321343 4.142056,3.414144 1.487255,1.503122 2.931522,3.336025 5.008819,3.91679 1.812853,0.401616 3.526175,-1.518395 2.83762,-3.345958 -0.668131,-2.358518 -2.430781,-4.150198 -3.927979,-5.974405 -1.484377,-1.628602 -3.090575,-3.322234 -5.16249,-4.092123 -2.22094,-0.590402 -2.538693,3.328603 -4.676391,2.518354 -1.565632,-0.265428 -3.9457794,-2.306156 -1.596824,-3.399275 1.85979,-1.381677 3.669825,-3.306986 6.114752,-3.333447 0.993657,-0.05691 1.98822,0.07143 2.962456,0.266435 z" /><path style="fill:#2F5597;" d="M 10.763332,21.146801 C 7.4237226,19.83885 5.1218958,16.817146 2.8959549,14.068823 1.2105302,11.758217 -0.48984489,8.8302543 0.2757837,5.8242123 1.1989178,2.9243591 3.9265925,1.1526288 6.5281286,0.08291206 9.1446062,-0.76694722 11.767485,0.66826814 13.75214,2.3511112 c 2.671025,2.1716414 4.769934,5.0034217 6.522396,7.9967088 -0.450158,1.394548 -2.704009,0.262612 -3.876582,0.679653 C 14.522414,10.956694 13.871357,8.3645032 12.427173,7.3132038 11.017042,5.916451 9.5376318,4.2556159 7.5732394,3.8141871 5.7800326,3.6037992 3.5962598,5.3075919 4.2956049,7.3180421 c 1.0626163,3.3984209 3.7346537,5.8623729 6.0639201,8.3502369 1.294334,1.300434 3.686438,3.274306 5.325845,1.473051 0.775922,-1.657686 2.375346,-2.654153 3.964324,-1.31339 2.258871,1.329487 -0.635211,3.114357 -1.75742,4.002735 -2.055274,1.521165 -4.690256,2.250439 -7.128942,1.316126 z" /></g></svg>
